<svg width="22" height="22" viewBox="0 0 22 22" fill="none" xmlns="http://www.w3.org/2000/svg">
    <path fill-rule="evenodd" clip-rule="evenodd" d="M0.200195 3.50001C0.200195 1.67747 1.67766 0.200012 3.5002 0.200012H18.5002C20.3227 0.200012 21.8002 1.67747 21.8002 3.50001V14.9C21.8002 16.7226 20.3227 18.2 18.5002 18.2H14.9002C14.4281 18.2 13.9835 18.4223 13.7002 18.8L11.7202 21.44C11.5502 21.6666 11.2835 21.8 11.0002 21.8C10.7169 21.8 10.4502 21.6666 10.2802 21.44L8.3002 18.8C8.01691 18.4223 7.57233 18.2 7.1002 18.2H3.5002C1.67766 18.2 0.200195 16.7226 0.200195 14.9V3.50001ZM3.5002 2.00001C2.67177 2.00001 2.0002 2.67159 2.0002 3.50001V14.9C2.0002 15.7284 2.67177 16.4 3.5002 16.4H7.1002C8.13889 16.4 9.11698 16.8891 9.7402 17.72L11.0002 19.4L12.2602 17.72C12.8834 16.8891 13.8615 16.4 14.9002 16.4H18.5002C19.3286 16.4 20.0002 15.7284 20.0002 14.9V3.50001C20.0002 2.67159 19.3286 2.00001 18.5002 2.00001H3.5002Z" fill="#E6EEFA"/>
</svg>
