<svg width="18" height="22" viewBox="0 0 18 22" fill="none" xmlns="http://www.w3.org/2000/svg">
    <path fill-rule="evenodd" clip-rule="evenodd" d="M0.600098 3.49995C0.600098 1.67741 2.07756 0.199951 3.9001 0.199951H14.1001C15.9226 0.199951 17.4001 1.67741 17.4001 3.49995V20.9C17.4001 21.2093 17.2412 21.497 16.9794 21.6617C16.7176 21.8264 16.3895 21.8452 16.1106 21.7113L9.64919 18.6098C9.23887 18.4129 8.76132 18.4129 8.351 18.6098L1.88956 21.7113C1.61068 21.8452 1.2826 21.8264 1.02078 21.6617C0.758962 21.497 0.600098 21.2093 0.600098 20.9V3.49995ZM3.9001 1.99995C3.07167 1.99995 2.4001 2.67152 2.4001 3.49995V19.4696L7.57208 16.9871C8.47479 16.5538 9.52541 16.5538 10.4281 16.9871L15.6001 19.4696V3.49995C15.6001 2.67152 14.9285 1.99995 14.1001 1.99995H3.9001Z" fill="#E6EEFA"/>
</svg>
