<svg width="18" height="18" viewBox="0 0 18 18" fill="none" xmlns="http://www.w3.org/2000/svg">
    <path fill-rule="evenodd" clip-rule="evenodd" d="M15.25 1.5C14.5596 1.5 14 2.05964 14 2.75C14 3.44036 14.5596 4 15.25 4C15.9404 4 16.5 3.44036 16.5 2.75C16.5 2.05964 15.9404 1.5 15.25 1.5ZM12.6035 2C12.93 0.845748 13.9912 0 15.25 0C16.7688 0 18 1.23122 18 2.75C18 4.26878 16.7688 5.5 15.25 5.5C13.9912 5.5 12.93 4.65425 12.6035 3.5H0.75C0.335786 3.5 0 3.16421 0 2.75C0 2.33579 0.335786 2 0.75 2H12.6035ZM5 7.75C4.30964 7.75 3.75 8.30964 3.75 9C3.75 9.69036 4.30964 10.25 5 10.25C5.69036 10.25 6.25 9.69036 6.25 9C6.25 8.30964 5.69036 7.75 5 7.75ZM2.35352 8.25C2.67998 7.09575 3.74122 6.25 5 6.25C6.25878 6.25 7.32002 7.09575 7.64648 8.25H17.25C17.6642 8.25 18 8.58579 18 9C18 9.41421 17.6642 9.75 17.25 9.75H7.64648C7.32002 10.9043 6.25878 11.75 5 11.75C3.74122 11.75 2.67998 10.9043 2.35352 9.75H0.75C0.335786 9.75 0 9.41421 0 9C0 8.58579 0.335786 8.25 0.75 8.25H2.35352ZM10.75 14C10.0596 14 9.5 14.5596 9.5 15.25C9.5 15.9404 10.0596 16.5 10.75 16.5C11.4404 16.5 12 15.9404 12 15.25C12 14.5596 11.4404 14 10.75 14ZM8.10352 14.5C8.42998 13.3457 9.49122 12.5 10.75 12.5C12.0088 12.5 13.07 13.3457 13.3965 14.5H17.25C17.6642 14.5 18 14.8358 18 15.25C18 15.6642 17.6642 16 17.25 16H13.3965C13.07 17.1543 12.0088 18 10.75 18C9.49122 18 8.42998 17.1543 8.10352 16H0.75C0.335786 16 0 15.6642 0 15.25C0 14.8358 0.335786 14.5 0.75 14.5H8.10352Z" fill="#E6EEFA"/>
</svg>
