<svg width="22" height="20" viewBox="0 0 22 20" fill="none" xmlns="http://www.w3.org/2000/svg">
    <path fill-rule="evenodd" clip-rule="evenodd" d="M15.2139 2.22961C14.0409 2.37804 12.7787 3.10763 11.7659 4.74733C11.6019 5.01276 11.3122 5.17435 11.0002 5.17435C10.6882 5.17435 10.3985 5.01277 10.2345 4.74734C9.22166 3.10768 7.95953 2.37809 6.78649 2.22964C5.59969 2.07945 4.37934 2.5071 3.42178 3.42139C1.52591 5.2484 1.52633 8.32764 3.42304 10.1541L11.0002 17.4506L18.5773 10.1541C20.4741 8.32764 20.4745 5.24842 18.5786 3.42141C17.6211 2.5071 16.4007 2.07943 15.2139 2.22961ZM14.9879 0.443846C16.7689 0.218475 18.5164 0.872344 19.8234 2.12118L19.8259 2.12359C22.4583 4.65849 22.4583 8.91578 19.8259 11.4507L11.6245 19.3483C11.2759 19.6839 10.7244 19.6839 10.3759 19.3483L2.17449 11.4507C-0.457903 8.91578 -0.457903 4.65848 2.17449 2.1236L2.17701 2.12117L2.17702 2.12118C3.48403 0.872337 5.23147 0.218499 7.01248 0.443884C8.46437 0.62762 9.85799 1.38456 11.0002 2.73938C12.1424 1.38452 13.536 0.627572 14.9879 0.443846Z" fill="#E6EEFA"/>
</svg>
