<svg width="23" height="23" viewBox="0 0 23 23" fill="none" xmlns="http://www.w3.org/2000/svg">
    <path d="M21.2384 9.67807C22.1848 10.695 22.75 11.9811 22.75 13.3796C22.75 14.449 22.2736 15.5682 21.5557 16.4963C20.0938 18.386 19.3627 19.3311 19.2385 19.594C19.0316 20.0322 19.0869 19.8512 19.0137 20.3301C18.9698 20.6176 18.9982 21.0497 19.055 21.914L19.11 22.75C19.11 22.75 16.1312 19.3426 15.75 19.3426C14.3777 19.3426 13.0977 19.0062 12.0173 18.425M17.4167 7.75C17.4167 11.616 13.6857 14.75 9.08333 14.75C8.6295 14.75 5.08333 18.75 5.08333 18.75L5.18738 17.1894C5.25321 16.2019 5.28612 15.7081 5.22903 15.3877C5.14373 14.909 5.17685 15.0032 4.94365 14.5765C4.78755 14.2909 4.04871 13.4868 2.57108 11.8787C1.49828 10.7111 0.75 9.19197 0.75 7.75C0.75 3.88401 4.48096 0.75 9.08333 0.75C13.6857 0.75 17.4167 3.88401 17.4167 7.75Z" stroke="#E6EEFA" stroke-width="1.5" stroke-linecap="round" stroke-linejoin="round"/>
</svg>
