<svg width="4" height="18" viewBox="0 0 4 18" fill="none" xmlns="http://www.w3.org/2000/svg">
    <path d="M2 3C1.58579 3 1.25 2.66421 1.25 2.25C1.25 1.83579 1.58579 1.5 2 1.5C2.41421 1.5 2.75 1.83579 2.75 2.25C2.75 2.66421 2.41421 3 2 3ZM2 9.75C1.58579 9.75 1.25 9.41421 1.25 9C1.25 8.58579 1.58579 8.25 2 8.25C2.41421 8.25 2.75 8.58579 2.75 9C2.75 9.41421 2.41421 9.75 2 9.75ZM2 16.5C1.58579 16.5 1.25 16.1642 1.25 15.75C1.25 15.3358 1.58579 15 2 15C2.41421 15 2.75 15.3358 2.75 15.75C2.75 16.1642 2.41421 16.5 2 16.5Z" stroke="#FAFAFA" stroke-width="1.5" stroke-linejoin="round"/>
</svg>
