<svg width="20" height="22" viewBox="0 0 20 22" fill="none" xmlns="http://www.w3.org/2000/svg">
    <path d="M4.36778 5.29998C4.6124 2.8412 6.72026 1.09998 9.23956 1.09998H10.76C13.2793 1.09998 15.3872 2.8412 15.6318 5.29998L16.1403 10.7C16.3246 12.5528 17.1212 14.432 18.4089 15.8C19.0527 16.4839 18.558 17.9 17.6089 17.9H2.39068C1.44158 17.9 0.946925 16.4839 1.59068 15.8C2.87836 14.432 3.67499 12.5528 3.85933 10.7L4.36778 5.29998Z" stroke="black" stroke-width="1.5" stroke-linejoin="round"/>
    <path d="M7.29981 17.9H12.6998V18.2C12.6998 19.6911 11.491 20.9 9.99981 20.9C8.50864 20.9 7.29981 19.6911 7.29981 18.2V17.9Z" stroke="black" stroke-width="1.5" stroke-linejoin="round"/>
</svg>
