<svg width="22" height="22" viewBox="0 0 22 22" fill="none" xmlns="http://www.w3.org/2000/svg">
    <path d="M20.0985 13.1L20.6417 16.4761C20.887 18.0002 21.0096 18.7623 20.773 19.3553C20.5654 19.8757 20.175 20.3109 19.6686 20.5863C19.0916 20.9 18.2853 20.9 16.6726 20.9H5.32763C3.71492 20.9 2.90857 20.9 2.33162 20.5863C1.82522 20.3109 1.43476 19.8757 1.22715 19.3553C0.990625 18.7623 1.11324 18.0002 1.35846 16.4761L1.90165 13.1M15.0306 10.858C17.2566 8.62575 17.2566 5.00649 15.0306 2.7742C12.8046 0.541902 9.19558 0.541902 6.96959 2.7742C4.7436 5.00649 4.7436 8.62575 6.96959 10.858C8.04723 11.9387 11.0001 14.9 11.0001 14.9C11.0001 14.9 13.8823 12.0096 15.0306 10.858ZM11.9001 6.79998C11.9001 7.29703 11.4972 7.69998 11.0001 7.69998C10.503 7.69998 10.1001 7.29703 10.1001 6.79998C10.1001 6.30292 10.503 5.89998 11.0001 5.89998C11.4972 5.89998 11.9001 6.30292 11.9001 6.79998Z" stroke="black" stroke-width="1.5" stroke-linecap="round" stroke-linejoin="round"/>
</svg>
