<svg width="20" height="20" viewBox="0 0 20 20" fill="none" xmlns="http://www.w3.org/2000/svg">
    <path fill-rule="evenodd" clip-rule="evenodd" d="M8.80494 11.8178L12.4619 17.7508C12.6219 18.0108 12.8719 18.0078 12.9729 17.9938C13.0739 17.9798 13.3169 17.9178 13.4049 17.6228L17.9779 2.1778C18.0579 1.9048 17.9109 1.7188 17.8449 1.6528C17.7809 1.5868 17.5979 1.4458 17.3329 1.5208L1.87695 6.0468C1.58394 6.1328 1.51994 6.3788 1.50594 6.4798C1.49194 6.5828 1.48794 6.8378 1.74694 7.0008L7.74794 10.7538L13.0499 5.3958C13.3409 5.1018 13.8159 5.0988 14.1109 5.3898C14.4059 5.6808 14.4079 6.1568 14.1169 6.4508L8.80494 11.8178ZM12.8949 19.4998C12.1989 19.4998 11.5609 19.1458 11.1849 18.5378L7.30794 12.2468L0.951945 8.2718C0.266945 7.8428 -0.091055 7.0788 0.019945 6.2758C0.129945 5.4728 0.680945 4.8348 1.45494 4.6078L16.9109 0.0818021C17.6219 -0.126198 18.3839 0.0708021 18.9079 0.592802C19.4319 1.1198 19.6269 1.8898 19.4149 2.6038L14.8419 18.0478C14.6129 18.8248 13.9729 19.3738 13.1719 19.4808C13.0779 19.4928 12.9869 19.4998 12.8949 19.4998Z" fill="#FAFAFA"/>
</svg>
