<svg width="22" height="20" viewBox="0 0 22 20" fill="none" xmlns="http://www.w3.org/2000/svg">
    <path fill-rule="evenodd" clip-rule="evenodd" d="M5.8389 18H15.6589C15.6609 17.998 15.6689 18 15.6749 18C16.8159 18 17.8279 17.592 18.6039 16.817C19.5049 15.92 19.9999 14.631 19.9999 13.188V6.32C19.9999 3.527 18.1739 1.5 15.6589 1.5H5.8409C3.3259 1.5 1.4999 3.527 1.4999 6.32V13.188C1.4999 14.631 1.9959 15.92 2.8959 16.817C3.6719 17.592 4.6849 18 5.8249 18H5.8389ZM5.8219 19.5C4.2789 19.5 2.9009 18.94 1.8369 17.88C0.651901 16.698 -9.91821e-05 15.032 -9.91821e-05 13.188V6.32C-9.91821e-05 2.717 2.5109 0 5.8409 0H15.6589C18.9889 0 21.4999 2.717 21.4999 6.32V13.188C21.4999 15.032 20.8479 16.698 19.6629 17.88C18.5999 18.939 17.2209 19.5 15.6749 19.5H15.6589H5.8409H5.8219Z" fill="black"/>
</svg>
