<svg width="23" height="23" viewBox="0 0 23 23" fill="none" xmlns="http://www.w3.org/2000/svg">
    <path fill-rule="evenodd" clip-rule="evenodd" d="M7.8469 2.95789C7.8469 1.4391 9.07811 0.207886 10.5969 0.207886H11.8191C13.3379 0.207886 14.5691 1.4391 14.5691 2.95789V3.09339L14.665 2.99754C15.7389 1.9236 17.4801 1.9236 18.5541 2.99754L19.4183 3.86178C20.4922 4.93572 20.4922 6.67693 19.4183 7.75087L19.3224 7.84677H19.458C20.9768 7.84677 22.208 9.07799 22.208 10.5968V11.819C22.208 13.3378 20.9768 14.569 19.458 14.569H19.3224L19.4183 14.6649C20.4922 15.7388 20.4923 17.48 19.4183 18.554L18.5541 19.4182C17.4801 20.4921 15.7389 20.4921 14.665 19.4182L14.5691 19.3223V19.4579C14.5691 20.9767 13.3379 22.2079 11.8191 22.2079H10.5969C9.07811 22.2079 7.8469 20.9767 7.8469 19.4579V19.3223L7.75104 19.4181C6.6771 20.4921 4.93589 20.4921 3.86195 19.4181L2.99771 18.5539C1.92377 17.4799 1.92377 15.7387 2.99771 14.6648L3.09352 14.569H2.95801C1.43922 14.569 0.208008 13.3378 0.208008 11.819L0.208008 10.5968C0.208008 9.07799 1.43923 7.84677 2.95801 7.84677H3.09355L2.99772 7.75094C1.92378 6.677 1.92378 4.93579 2.99772 3.86185L3.86196 2.99761C4.9359 1.92367 6.6771 1.92367 7.75105 2.99761L7.8469 3.09346V2.95789ZM10.5969 2.04122C10.0906 2.04122 9.68023 2.45162 9.68023 2.95789V3.83114C9.68023 5.19224 8.0346 5.87389 7.07215 4.91144L6.45468 4.29397C6.0967 3.93599 5.5163 3.93599 5.15832 4.29397L4.29408 5.15821C3.9361 5.51619 3.9361 6.0966 4.29408 6.45458L4.91153 7.07203C5.87398 8.03447 5.19234 9.68011 3.83123 9.68011H2.95801C2.45175 9.68011 2.04134 10.0905 2.04134 10.5968V11.819C2.04134 12.3253 2.45175 12.7357 2.95801 12.7357H3.83119C5.1923 12.7357 5.87394 14.3813 4.9115 15.3437L4.29407 15.9612C3.93609 16.3191 3.93609 16.8995 4.29407 17.2575L5.15832 18.1218C5.5163 18.4797 6.0967 18.4797 6.45468 18.1218L7.07215 17.5043C8.03459 16.5419 9.68023 17.2235 9.68023 18.5846V19.4579C9.68023 19.9641 10.0906 20.3746 10.5969 20.3746H11.8191C12.3254 20.3746 12.7358 19.9641 12.7358 19.4579V18.5847C12.7358 17.2236 14.3814 16.5419 15.3439 17.5044L15.9613 18.1218C16.3193 18.4798 16.8997 18.4798 17.2577 18.1218L18.1219 17.2576C18.4799 16.8996 18.4799 16.3192 18.1219 15.9612L17.5045 15.3437C16.542 14.3813 17.2236 12.7357 18.5848 12.7357H19.458C19.9643 12.7357 20.3747 12.3253 20.3747 11.819V10.5968C20.3747 10.0905 19.9643 9.68011 19.458 9.68011L18.5847 9.68011C17.2236 9.68011 16.542 8.03447 17.5044 7.07203L18.1219 6.4545C18.4799 6.09652 18.4799 5.51612 18.1219 5.15814L17.2577 4.2939C16.8997 3.93592 16.3193 3.93592 15.9613 4.2939L15.3439 4.91137C14.3814 5.87381 12.7358 5.19218 12.7358 3.83107V2.95789C12.7358 2.45162 12.3254 2.04122 11.8191 2.04122H10.5969ZM11.208 8.76344C9.85798 8.76344 8.76356 9.85786 8.76356 11.2079C8.76356 12.5579 9.85798 13.6523 11.208 13.6523C12.558 13.6523 13.6525 12.5579 13.6525 11.2079C13.6525 9.85786 12.558 8.76344 11.208 8.76344ZM6.93023 11.2079C6.93023 8.84533 8.84546 6.93011 11.208 6.93011C13.5706 6.93011 15.4858 8.84533 15.4858 11.2079C15.4858 13.5704 13.5706 15.4857 11.208 15.4857C8.84546 15.4857 6.93023 13.5704 6.93023 11.2079Z" fill="black"/>
</svg>
