<svg width="12" height="12" viewBox="0 0 12 12" fill="none" xmlns="http://www.w3.org/2000/svg">
    <path fill-rule="evenodd" clip-rule="evenodd" d="M0.263604 0.263604C0.615076 -0.087868 1.18492 -0.087868 1.5364 0.263604L6 4.72721L10.4636 0.263604C10.8151 -0.087868 11.3849 -0.087868 11.7364 0.263604C12.0879 0.615076 12.0879 1.18492 11.7364 1.5364L7.27279 6L11.7364 10.4636C12.0879 10.8151 12.0879 11.3849 11.7364 11.7364C11.3849 12.0879 10.8151 12.0879 10.4636 11.7364L6 7.27279L1.5364 11.7364C1.18492 12.0879 0.615076 12.0879 0.263604 11.7364C-0.087868 11.3849 -0.087868 10.8151 0.263604 10.4636L4.72721 6L0.263604 1.5364C-0.087868 1.18492 -0.087868 0.615076 0.263604 0.263604Z" fill="#FAFAFA"/>
</svg>
