<svg width="22" height="22" viewBox="0 0 22 22" fill="none" xmlns="http://www.w3.org/2000/svg">
    <path fill-rule="evenodd" clip-rule="evenodd" d="M18.2002 1.99995C17.2061 1.99995 16.4002 2.80584 16.4002 3.79995C16.4002 4.79406 17.2061 5.59995 18.2002 5.59995C19.1943 5.59995 20.0002 4.79406 20.0002 3.79995C20.0002 2.80584 19.1943 1.99995 18.2002 1.99995ZM14.6002 3.79995C14.6002 1.81173 16.212 0.199951 18.2002 0.199951C20.1884 0.199951 21.8002 1.81173 21.8002 3.79995C21.8002 5.78818 20.1884 7.39995 18.2002 7.39995C17.1167 7.39995 16.1449 6.92125 15.4849 6.16381L7.32107 10.2457C7.37291 10.489 7.4002 10.7413 7.4002 11C7.4002 11.2586 7.37291 11.5109 7.32107 11.7542L15.4849 15.8361C16.1449 15.0786 17.1167 14.6 18.2002 14.6C20.1884 14.6 21.8002 16.2117 21.8002 18.2C21.8002 20.1882 20.1884 21.8 18.2002 21.8C16.212 21.8 14.6002 20.1882 14.6002 18.2C14.6002 17.9413 14.6275 17.689 14.6793 17.4457L6.51544 13.3638C5.85547 14.1213 4.88373 14.6 3.8002 14.6C1.81197 14.6 0.200195 12.9882 0.200195 11C0.200195 9.01173 1.81197 7.39995 3.8002 7.39995C4.88373 7.39995 5.85547 7.87865 6.51544 8.6361L14.6793 4.55416C14.6275 4.31094 14.6002 4.05863 14.6002 3.79995ZM3.8002 9.19995C2.80608 9.19995 2.0002 10.0058 2.0002 11C2.0002 11.9941 2.80608 12.8 3.8002 12.8C4.79431 12.8 5.6002 11.9941 5.6002 11C5.6002 10.0058 4.79431 9.19995 3.8002 9.19995ZM18.2002 16.4C17.2061 16.4 16.4002 17.2058 16.4002 18.2C16.4002 19.1941 17.2061 20 18.2002 20C19.1943 20 20.0002 19.1941 20.0002 18.2C20.0002 17.2058 19.1943 16.4 18.2002 16.4Z" fill="#E6EEFA"/>
</svg>
